<svg width="139" height="138" viewBox="0 0 139 138" fill="none" xmlns="http://www.w3.org/2000/svg">
<g filter="url(#filter0_d_30_6)">
<path fill-rule="evenodd" clip-rule="evenodd" d="M96 10H41C37.134 10 34 13.134 34 17V117C34 120.866 37.134 124 41 124H96C99.866 124 103 120.866 103 117V17C103 13.134 99.866 10 96 10ZM41 2C32.7157 2 26 8.71573 26 17V117C26 125.284 32.7157 132 41 132H96C104.284 132 111 125.284 111 117V17C111 8.71573 104.284 2 96 2H41Z" fill="#FA5075"/>
<path fill-rule="evenodd" clip-rule="evenodd" d="M83.4531 92.5691C87.6472 86.3691 90.5 77.3527 90.5 66.9995C90.5 56.6463 87.6472 47.63 83.4531 41.4299C79.228 35.1842 74.2365 32.4995 69.75 32.4995C65.2635 32.4995 60.272 35.1842 56.047 41.4299C51.8528 47.63 49 56.6463 49 66.9995C49 77.3527 51.8528 86.3691 56.047 92.5691C60.272 98.8148 65.2635 101.5 69.75 101.5C74.2365 101.5 79.228 98.8148 83.4531 92.5691ZM69.75 109.5C85.6282 109.5 98.5 90.4716 98.5 66.9995C98.5 43.5274 85.6282 24.4995 69.75 24.4995C53.8718 24.4995 41 43.5274 41 66.9995C41 90.4716 53.8718 109.5 69.75 109.5Z" fill="#FA5075"/>
<path fill-rule="evenodd" clip-rule="evenodd" d="M133.285 28.129C134.871 29.6672 134.909 32.1996 133.371 33.7852L101.299 66.8458C98.6734 69.5519 94.2322 69.1947 92.0732 66.1037L89.2354 62.0409C84.7053 65.9006 79.0011 70.704 74.0055 74.7888C71.192 77.0894 68.5772 79.1834 66.514 80.7577C65.4861 81.542 64.5601 82.2241 63.7972 82.7464C63.4173 83.0064 63.0425 83.2512 62.6938 83.4573C62.4064 83.6271 61.9121 83.9075 61.354 84.0939C60.0113 84.5425 58.7661 84.3155 58.0665 84.1345C57.2774 83.9303 56.5178 83.6036 55.8524 83.2704C54.5125 82.5995 53.0453 81.6418 51.6322 80.6281C49.2994 78.9546 46.7935 76.8947 44.6953 75.0717L10.7131 106.439C9.08981 107.938 6.55918 107.836 5.06078 106.213C3.56238 104.59 3.66363 102.059 5.28693 100.561L40.5824 67.981C42.8904 65.8505 46.3987 65.8823 48.6854 67.9255C50.8906 69.8958 53.7669 72.3139 56.2955 74.1278C57.5383 75.0194 58.5866 75.6846 59.3677 76.0834C59.9561 75.677 60.7272 75.1103 61.6612 74.3976C63.6182 72.9044 66.1521 70.8765 68.9414 68.5956C74.5127 64.0401 80.9997 58.5604 85.7124 54.5299C88.4108 52.2221 92.5043 52.7502 94.5334 55.6552L97.244 59.536L127.629 28.2148C129.167 26.6292 131.7 26.5908 133.285 28.129Z" fill="#FA5075"/>
</g>
<defs>
<filter id="filter0_d_30_6" x="0" y="0" width="138.5" height="138" filterUnits="userSpaceOnUse" color-interpolation-filters="sRGB">
<feFlood flood-opacity="0" result="BackgroundImageFix"/>
<feColorMatrix in="SourceAlpha" type="matrix" values="0 0 0 0 0 0 0 0 0 0 0 0 0 0 0 0 0 0 127 0" result="hardAlpha"/>
<feOffset dy="2"/>
<feGaussianBlur stdDeviation="2"/>
<feComposite in2="hardAlpha" operator="out"/>
<feColorMatrix type="matrix" values="0 0 0 0 0 0 0 0 0 0 0 0 0 0 0 0 0 0 0.33 0"/>
<feBlend mode="normal" in2="BackgroundImageFix" result="effect1_dropShadow_30_6"/>
<feBlend mode="normal" in="SourceGraphic" in2="effect1_dropShadow_30_6" result="shape"/>
</filter>
</defs>
</svg>
